<mxfile host="app.diagrams.net" agent="Mozilla/5.0 (Windows NT 10.0; Win64; x64) AppleWebKit/537.36 (KHTML, like Gecko) Chrome/126.0.0.0 YaBrowser/24.7.0.0 Safari/537.36" version="24.7.13">
  <diagram id="C5RBs43oDa-KdzZeNtuy" name="Page-1">
    <mxGraphModel dx="750" dy="418" grid="1" gridSize="10" guides="1" tooltips="1" connect="1" arrows="1" fold="1" page="1" pageScale="1" pageWidth="827" pageHeight="1169" math="0" shadow="0">
      <root>
        <mxCell id="WIyWlLk6GJQsqaUBKTNV-0" />
        <mxCell id="WIyWlLk6GJQsqaUBKTNV-1" parent="WIyWlLk6GJQsqaUBKTNV-0" />
        <mxCell id="zkfFHV4jXpPFQw0GAbJ--0" value="index.js" style="swimlane;fontStyle=3;align=center;verticalAlign=top;childLayout=stackLayout;horizontal=1;startSize=26;horizontalStack=0;resizeParent=1;resizeLast=0;collapsible=1;marginBottom=0;rounded=0;shadow=0;strokeWidth=1;fontFamily=Courier New;fontSize=13;" parent="WIyWlLk6GJQsqaUBKTNV-1" vertex="1">
          <mxGeometry x="360" y="40" width="270" height="140" as="geometry">
            <mxRectangle x="230" y="140" width="160" height="26" as="alternateBounds" />
          </mxGeometry>
        </mxCell>
        <mxCell id="UJyE6CEMqUMOk0vlTQf--17" value="" style="endArrow=classic;html=1;rounded=0;entryX=0;entryY=0.923;entryDx=0;entryDy=0;entryPerimeter=0;fontFamily=Courier New;fontStyle=1;fontSize=13;" edge="1" parent="zkfFHV4jXpPFQw0GAbJ--0">
          <mxGeometry width="50" height="50" relative="1" as="geometry">
            <mxPoint x="-40" y="26" as="sourcePoint" />
            <mxPoint y="25.99799999999999" as="targetPoint" />
          </mxGeometry>
        </mxCell>
        <mxCell id="UJyE6CEMqUMOk0vlTQf--1" value="&lt;font style=&quot;font-size: 13px;&quot;&gt;&lt;span style=&quot;font-size: 13px;&quot;&gt;&lt;font style=&quot;font-size: 13px;&quot; color=&quot;#ff0000&quot;&gt;import&lt;/font&gt;&lt;font style=&quot;font-size: 13px;&quot; color=&quot;#66cc00&quot;&gt; React &lt;/font&gt;&lt;font style=&quot;font-size: 13px;&quot; color=&quot;#cc0000&quot;&gt;from&lt;/font&gt;&lt;font style=&quot;font-size: 13px;&quot; color=&quot;#66cc00&quot;&gt; &#39;React&#39;&lt;/font&gt;&lt;/span&gt;&lt;/font&gt;" style="rounded=0;whiteSpace=wrap;html=1;fontFamily=Courier New;fontStyle=1;fontSize=13;" vertex="1" parent="WIyWlLk6GJQsqaUBKTNV-1">
          <mxGeometry x="660" y="40" width="170" height="60" as="geometry" />
        </mxCell>
        <mxCell id="UJyE6CEMqUMOk0vlTQf--4" value="" style="endArrow=classic;html=1;rounded=0;exitX=0;exitY=0.5;exitDx=0;exitDy=0;fontFamily=Courier New;fontStyle=1;fontSize=13;" edge="1" parent="WIyWlLk6GJQsqaUBKTNV-1" source="UJyE6CEMqUMOk0vlTQf--1">
          <mxGeometry width="50" height="50" relative="1" as="geometry">
            <mxPoint x="388" y="180" as="sourcePoint" />
            <mxPoint x="630" y="70" as="targetPoint" />
            <Array as="points" />
          </mxGeometry>
        </mxCell>
        <mxCell id="UJyE6CEMqUMOk0vlTQf--6" value="&lt;font style=&quot;font-size: 13px;&quot;&gt;&lt;span style=&quot;font-size: 13px;&quot;&gt;&lt;font style=&quot;font-size: 13px;&quot; color=&quot;#ff0000&quot;&gt;import&lt;/font&gt;&lt;font style=&quot;font-size: 13px;&quot; color=&quot;#66cc00&quot;&gt; ReactDOM&amp;nbsp;&lt;/font&gt;&lt;font style=&quot;font-size: 13px;&quot; color=&quot;#cc0000&quot;&gt;from&lt;/font&gt;&lt;font style=&quot;font-size: 13px;&quot; color=&quot;#66cc00&quot;&gt; &#39;React&#39;&lt;/font&gt;&lt;/span&gt;&lt;/font&gt;" style="rounded=0;whiteSpace=wrap;html=1;fontFamily=Courier New;fontStyle=1;fontSize=13;" vertex="1" parent="WIyWlLk6GJQsqaUBKTNV-1">
          <mxGeometry x="660" y="120" width="170" height="60" as="geometry" />
        </mxCell>
        <mxCell id="UJyE6CEMqUMOk0vlTQf--7" value="" style="endArrow=classic;html=1;rounded=0;exitX=0;exitY=0.5;exitDx=0;exitDy=0;entryX=1.001;entryY=-0.129;entryDx=0;entryDy=0;entryPerimeter=0;fontFamily=Courier New;fontStyle=1;fontSize=13;" edge="1" parent="WIyWlLk6GJQsqaUBKTNV-1" source="UJyE6CEMqUMOk0vlTQf--6">
          <mxGeometry width="50" height="50" relative="1" as="geometry">
            <mxPoint x="1020" y="80" as="sourcePoint" />
            <mxPoint x="630.27" y="70.64600000000002" as="targetPoint" />
            <Array as="points">
              <mxPoint x="630" y="150" />
            </Array>
          </mxGeometry>
        </mxCell>
        <mxCell id="UJyE6CEMqUMOk0vlTQf--8" value="&lt;font style=&quot;font-size: 13px;&quot;&gt;&lt;span style=&quot;font-size: 13px;&quot;&gt;&lt;font style=&quot;font-size: 13px;&quot; color=&quot;#ff0000&quot;&gt;import&lt;/font&gt;&lt;font style=&quot;font-size: 13px;&quot; color=&quot;#66cc00&quot;&gt;&amp;nbsp;&#39;index.css&#39;&lt;/font&gt;&lt;/span&gt;&lt;/font&gt;" style="rounded=0;whiteSpace=wrap;html=1;fontFamily=Courier New;fontStyle=1;fontSize=13;" vertex="1" parent="WIyWlLk6GJQsqaUBKTNV-1">
          <mxGeometry x="160" y="40" width="160" height="60" as="geometry" />
        </mxCell>
        <mxCell id="UJyE6CEMqUMOk0vlTQf--18" value="&lt;font style=&quot;font-size: 13px;&quot;&gt;&lt;span style=&quot;font-size: 13px;&quot;&gt;&lt;font style=&quot;font-size: 13px;&quot; color=&quot;#ff0000&quot;&gt;import&lt;/font&gt;&lt;font style=&quot;font-size: 13px;&quot; color=&quot;#66cc00&quot;&gt;&amp;nbsp;&#39;animate.css&#39;&lt;/font&gt;&lt;/span&gt;&lt;/font&gt;" style="rounded=0;whiteSpace=wrap;html=1;fontFamily=Courier New;fontStyle=1;fontSize=13;" vertex="1" parent="WIyWlLk6GJQsqaUBKTNV-1">
          <mxGeometry x="160" y="120" width="160" height="60" as="geometry" />
        </mxCell>
        <mxCell id="UJyE6CEMqUMOk0vlTQf--19" value="" style="endArrow=classic;html=1;rounded=0;entryX=0;entryY=0.923;entryDx=0;entryDy=0;entryPerimeter=0;fontFamily=Courier New;fontStyle=1;fontSize=13;" edge="1" parent="WIyWlLk6GJQsqaUBKTNV-1">
          <mxGeometry width="50" height="50" relative="1" as="geometry">
            <mxPoint x="320" y="150" as="sourcePoint" />
            <mxPoint x="360" y="149.998" as="targetPoint" />
          </mxGeometry>
        </mxCell>
        <mxCell id="UJyE6CEMqUMOk0vlTQf--21" value="&lt;font style=&quot;font-size: 13px;&quot;&gt;&lt;span style=&quot;font-size: 13px;&quot;&gt;&amp;lt;Layout /&amp;gt;&lt;/span&gt;&lt;/font&gt;" style="swimlane;fontStyle=1;childLayout=stackLayout;horizontal=1;startSize=40;horizontalStack=0;resizeParent=1;resizeParentMax=0;resizeLast=0;collapsible=1;marginBottom=0;whiteSpace=wrap;html=1;fontFamily=Courier New;fontSize=13;" vertex="1" parent="WIyWlLk6GJQsqaUBKTNV-1">
          <mxGeometry x="320" y="200" width="360" height="230" as="geometry" />
        </mxCell>
        <mxCell id="UJyE6CEMqUMOk0vlTQf--31" value="" style="rounded=0;whiteSpace=wrap;html=1;align=left;fontFamily=Courier New;fontStyle=1;fontSize=13;" vertex="1" parent="WIyWlLk6GJQsqaUBKTNV-1">
          <mxGeometry x="320" y="240" width="360" height="20" as="geometry" />
        </mxCell>
        <mxCell id="UJyE6CEMqUMOk0vlTQf--32" value="state" style="swimlane;whiteSpace=wrap;html=1;fontFamily=Courier New;fontStyle=1;fontSize=13;" vertex="1" parent="WIyWlLk6GJQsqaUBKTNV-1">
          <mxGeometry x="320" y="240" width="170" height="80" as="geometry" />
        </mxCell>
        <mxCell id="UJyE6CEMqUMOk0vlTQf--36" value="&amp;nbsp; &amp;nbsp;menuVisible: false,&lt;div&gt;&lt;span style=&quot;background-color: initial;&quot;&gt;showBigPic: false&lt;/span&gt;&lt;div&gt;&lt;div&gt;&lt;br&gt;&lt;/div&gt;&lt;/div&gt;&lt;/div&gt;" style="text;html=1;align=center;verticalAlign=middle;resizable=0;points=[];autosize=1;strokeColor=none;fillColor=none;fontStyle=1;fontFamily=Courier New;" vertex="1" parent="UJyE6CEMqUMOk0vlTQf--32">
          <mxGeometry x="-10" y="28" width="180" height="60" as="geometry" />
        </mxCell>
        <mxCell id="UJyE6CEMqUMOk0vlTQf--33" value="props" style="swimlane;whiteSpace=wrap;html=1;fontFamily=Courier New;fontStyle=1;fontSize=13;" vertex="1" parent="WIyWlLk6GJQsqaUBKTNV-1">
          <mxGeometry x="490" y="240" width="190" height="80" as="geometry" />
        </mxCell>
        <mxCell id="UJyE6CEMqUMOk0vlTQf--35" value="pictures: pictures" style="text;html=1;align=center;verticalAlign=middle;resizable=0;points=[];autosize=1;strokeColor=none;fillColor=none;fontFamily=Courier New;fontStyle=1" vertex="1" parent="UJyE6CEMqUMOk0vlTQf--33">
          <mxGeometry y="28" width="150" height="30" as="geometry" />
        </mxCell>
      </root>
    </mxGraphModel>
  </diagram>
</mxfile>
